<svg xmlns="http://www.w3.org/2000/svg" width="465" height="465" viewBox="0 0 465 465">
  <g id="Grupo_136" data-name="Grupo 136" transform="translate(96.368 95.921)">
    <circle id="Elipse_21" data-name="Elipse 21" cx="136.5" cy="136.5" r="136.5" transform="translate(-0.368 0.079)" fill="#232227" opacity="0.29"/>
    <g id="Grupo_135" data-name="Grupo 135" transform="translate(5.385 0.156)">
      <g id="Grupo_8" data-name="Grupo 8" transform="translate(33.312 98.148)">
        <g id="Grupo_7" data-name="Grupo 7">
          <path id="Caminho_23" data-name="Caminho 23" d="M1374,1659.806s24.673,32.178-38.874,74.289-152.142,56.045-169.773,10.7-1.17-31.922,66.567-39.684,112.838-78.2,123.733-70.517S1374,1659.806,1374,1659.806Z" transform="translate(-1158.788 -1634.006)" fill="#f9a332"/>
        </g>
      </g>
      <g id="Grupo_11" data-name="Grupo 11" transform="translate(33.416 128.4)">
        <g id="Grupo_10" data-name="Grupo 10" transform="translate(0 0)" opacity="0.3">
          <g id="Grupo_9" data-name="Grupo 9">
            <path id="Caminho_24" data-name="Caminho 24" d="M1159.824,1946.878c.687,4.987,2.836,11.649,6.32,20.61,17.63,45.349,106.226,31.416,169.773-10.7,33.225-22.017,42.33-41.315,43.458-54.721q.026.3.047.6a32.619,32.619,0,0,0-.706-4.885c-2.7,13.065-13.143,30.552-42.8,50.2a247.739,247.739,0,0,1-76.25,33.7c-7.75,1.837-27.556,5.8-33,.194-6.827-7.033,4.837-15.426,15.515-8.688,21.618,13.641,34.677-1.756,39.512-7.448s10.757-8.481,24.824-10.136,20.687-9.93,28.134-21.721,20.583.517,29.065-14.791,1.241-17.48,13.963-20.169l-1.345-6.052s-11.051,1.613-11.783,6.573,2.888,18.1-8.593,22.234-22.22-2.152-28.228,7.147-11.594,20.157-31.97,22.072-20.583,26.946-49.545,15.878-26.417,14.338-37.774,12.7-5.668-11.255-14.46-9.6c-5.165.972-9.5,4.674-12.2,7.564a38.248,38.248,0,0,1-15.646-18.759,151.342,151.342,0,0,1-5.116-14.921,9.428,9.428,0,0,0-1.346,4.058C1159.718,1947.5,1159.764,1947.182,1159.824,1946.878Z" transform="translate(-1159.681 -1892.873)" fill="#6d184e"/>
          </g>
        </g>
      </g>
      <g id="Grupo_13" data-name="Grupo 13" transform="translate(30.51 95.307)">
        <g id="Grupo_12" data-name="Grupo 12" transform="translate(0)">
          <path id="Caminho_25" data-name="Caminho 25" d="M1198.939,1754.237a91.54,91.54,0,0,1-27.618-3.848c-14.846-4.713-24.853-13.478-29.741-26.053-6.254-16.086-8.876-25.987-4.828-32.231,4.383-6.762,15.009-7.29,34.3-8.251,10.476-.522,23.513-1.17,39.382-2.989,42.129-4.828,75.239-34.333,97.148-53.857,14.652-13.057,22.721-20.25,28.512-16.169,10.755,7.58,18.1,23.657,19.18,26.114,1.237,1.777,6.813,10.716,4.516,24.448-3.021,18.062-17.922,36.08-44.291,53.555a252.788,252.788,0,0,1-75.735,33.7A168.673,168.673,0,0,1,1198.939,1754.237Zm133.561-138.9c-.642,0-2.238.367-5.726,2.817-4.065,2.854-9.354,7.567-15.477,13.024-22.435,19.993-56.34,50.207-100.228,55.235-16.047,1.839-29.184,2.493-39.74,3.019-16.3.812-27.061,1.347-29.89,5.711-2.706,4.174.181,13.879,5.348,27.169,4.246,10.921,13.07,18.577,26.225,22.753,34.061,10.812,92.688-3.808,139.4-34.765,24.574-16.284,39.041-33.447,41.835-49.632,2.19-12.684-3.4-20.322-3.644-20.641a2.906,2.906,0,0,1-.346-.6c-.1-.229-7.3-16.918-17.384-24.026A.739.739,0,0,0,1332.5,1615.338Z" transform="translate(-1134.814 -1609.697)" fill="#6d184e"/>
        </g>
      </g>
      <g id="Grupo_15" data-name="Grupo 15" transform="translate(10.542 101.868)">
        <g id="Grupo_14" data-name="Grupo 14" transform="translate(0 0)">
          <path id="Caminho_26" data-name="Caminho 26" d="M981.609,1744.343s-16.136-2.482-17.584,8.482,16.342,6.62,16.136,15.1-.414,19.652,17.791,12,23.169-17.353,28.961-7.539,15.1,8.16,19.446-1.15,12.884-11.058,29.611-1.5,19.158-24.208,41.965-20.329,23.79-7.137,35.995-20.17,37.857,1.241,37.029-17.584,1.138-11.74,12.464-19.963,11.171-27.462-11.016-25.755S1115.038,1747.24,981.609,1744.343Z" transform="translate(-963.941 -1665.834)" fill="#48c75a"/>
        </g>
      </g>
      <g id="Grupo_20" data-name="Grupo 20" transform="translate(127.224 111.346)" opacity="0.6">
        <g id="Grupo_17" data-name="Grupo 17" transform="translate(110.357)">
          <g id="Grupo_16" data-name="Grupo 16">
            <path id="Caminho_27" data-name="Caminho 27" d="M2920.013,1755.488c-11,8.564-14.444,9.49-12.972,16.095,1.173-4.1,4.562-2.773,12.119-8.26,5.591-4.059,8.376-10.8,7.1-16.383C2924.911,1749.573,2922.46,1753.583,2920.013,1755.488Z" transform="translate(-2906.719 -1746.94)" fill="#fff"/>
          </g>
        </g>
        <g id="Grupo_19" data-name="Grupo 19" transform="translate(0 35.261)">
          <g id="Grupo_18" data-name="Grupo 18">
            <path id="Caminho_28" data-name="Caminho 28" d="M2072.68,2048.671c-3.934,13.178-27.3,1.3-39.04,14.733-13.05,14.937-14.1,27.562-38.485,23.117-17.648-3.218-23.886,16.162-32.764,22.964,12.768,1.486,16.8-25.465,37.311-21.977,22.807,3.879,23.79-7.137,35.995-20.17s37.856,1.241,37.029-17.584C2072.709,2049.383,2072.695,2049.023,2072.68,2048.671Z" transform="translate(-1962.391 -2048.671)" fill="#fff"/>
          </g>
        </g>
      </g>
      <g id="Grupo_22" data-name="Grupo 22" transform="translate(10.542 101.874)" opacity="0.3">
        <g id="Grupo_21" data-name="Grupo 21" transform="translate(0 0)">
          <path id="Caminho_29" data-name="Caminho 29" d="M1136.139,1728.459c9.93-10.136,31.858-14.894,51.3-32.685,11.829-10.822,11.027-22.436,8.584-29.874a33.572,33.572,0,0,0-3.619.085c-22.186,1.707-77.368,81.3-210.8,78.4,0,0-16.136-2.482-17.584,8.482s16.342,6.62,16.136,15.1-.414,19.652,17.791,12,23.169-17.353,28.961-7.539,15.1,8.159,19.446-1.15,12.884-11.058,29.611-1.5,19.158-24.208,41.965-20.329a40.377,40.377,0,0,0,12.272.527C1129.435,1744.963,1129.193,1735.55,1136.139,1728.459Z" transform="translate(-963.941 -1665.884)" fill="#6d184e"/>
        </g>
      </g>
      <g id="Grupo_24" data-name="Grupo 24" transform="translate(8.172 99.5)">
        <g id="Grupo_23" data-name="Grupo 23" transform="translate(0 0)">
          <path id="Caminho_30" data-name="Caminho 30" d="M970.006,1766.948a9.877,9.877,0,0,1-5.708-1.58c-4.711-3.213-4.546-9.966-4.414-15.392.045-1.837-1.446-2.613-5.95-4.014-4.461-1.387-11.2-3.484-10.166-11.34a10.9,10.9,0,0,1,4.347-7.582c5.54-4.154,14.408-3.14,15.777-2.954,95.759,2.034,149.979-38.132,182.383-62.137,12.793-9.477,21.245-15.739,28.04-16.262,14.586-1.117,18.928,6.286,20.118,9.523,2.53,6.879-.637,15.5-7.53,20.509a39.34,39.34,0,0,1-8.15,4.575c-2.252.981-2.679,1.231-3.008,2.177-.609,1.747-.578,5.577-.331,11.191.177,4.028-.714,7.052-2.724,9.243-3.473,3.787-9.371,4.037-15.616,4.3-7.133.3-14.509.616-19.327,5.761a105.033,105.033,0,0,0-6.766,8.174c-6.859,8.914-12.277,15.956-31.354,12.711-10.211-1.736-15.831,5.118-21.268,11.748-5.387,6.567-11.492,14.009-21.475,8.3-8.977-5.133-15.781-7.019-20.222-5.611-2.563.814-4.548,2.793-6.068,6.052-2.564,5.495-6.9,8.911-11.608,9.139-4.654.232-8.925-2.541-12.022-7.787-1.029-1.743-1.958-2.7-2.841-2.921-1.666-.418-4.685,1.408-8.507,3.722a106.884,106.884,0,0,1-14.658,7.717C976.621,1766.038,972.989,1766.948,970.006,1766.948Zm-9.974-38.372c-2.9,0-6.683.453-9.083,2.258a6.249,6.249,0,0,0-2.486,4.408c-.468,3.547,1.625,4.565,6.878,6.2,3.974,1.236,9.417,2.929,9.277,8.651-.1,4.279-.234,9.6,2.348,11.365,2.079,1.419,6.284.862,12.158-1.607a102.763,102.763,0,0,0,14.042-7.4c4.954-3,8.533-5.162,12.114-4.262,2.2.555,4.034,2.178,5.762,5.106,2.16,3.66,4.9,5.583,7.716,5.464,2.917-.141,5.738-2.538,7.546-6.411,2.082-4.462,5.085-7.343,8.926-8.562,5.834-1.855,13.687.114,24.005,6.013,6.219,3.555,9.58-.022,15.464-7.195,5.7-6.955,12.8-15.611,25.722-13.413,16.269,2.769,20.012-2.1,26.808-10.931a110.567,110.567,0,0,1,7.063-8.523c6.14-6.556,14.875-6.927,22.582-7.255,5.236-.222,10.182-.432,12.327-2.771,1.117-1.218,1.6-3.126,1.483-5.835-.583-13.263.11-15.273,6.178-17.917a34.665,34.665,0,0,0,7.26-4.065c5.13-3.725,7.652-10.191,5.868-15.043-1.756-4.775-7.192-7.065-15.311-6.435-5.435.418-14.327,7-25.584,15.344-16,11.856-37.92,28.092-68.117,41.173-35.646,15.441-75.128,22.809-117.329,21.891a2.482,2.482,0,0,1-.305-.026h0A23.5,23.5,0,0,0,960.031,1728.576Z" transform="translate(-943.661 -1645.574)" fill="#6d184e"/>
        </g>
      </g>
      <g id="Grupo_26" data-name="Grupo 26" transform="translate(17.09 61.524)">
        <g id="Grupo_25" data-name="Grupo 25">
          <path id="Caminho_31" data-name="Caminho 31" d="M1203.866,1321.96a19.285,19.285,0,0,0-7.38,5.291,382.595,382.595,0,0,1-153.542,61.46,19.282,19.282,0,0,0-8.992,1.263c-13.124,5.253-17.842,24.3-10.538,42.552s21.811,25.35,36.988,23.528a350.357,350.357,0,0,0,88.644-24.8,350.349,350.349,0,0,0,81.27-43.217c12.242-9.154,17.842-24.3,10.538-42.552S1216.99,1316.707,1203.866,1321.96Z" transform="translate(-1019.977 -1320.609)" fill="#db2839"/>
        </g>
      </g>
      <g id="Grupo_28" data-name="Grupo 28" transform="translate(17.09 99.492)" opacity="0.45">
        <g id="Grupo_27" data-name="Grupo 27">
          <path id="Caminho_32" data-name="Caminho 32" d="M1244.115,1655.227l2.537-9.723s-74.151,6.6-83.161,60.854a360.308,360.308,0,0,1-60.138,19.156l-7.435-8.705s-13.208-1.177-19.259-9.089-16.2-10.437-21.411,1.862c-2.2,5.206-5.043,8.167-7.586,9.858a43.2,43.2,0,0,1-7.649-12.709c-4.478-11.188-4.431-22.672-.7-31.1a18.8,18.8,0,0,0-5.358,1.269c-13.124,5.253-17.842,24.3-10.538,42.552s21.811,25.35,36.988,23.529a350.352,350.352,0,0,0,88.644-24.8,350.343,350.343,0,0,0,81.27-43.217,37.247,37.247,0,0,0,5.568-5.106,342.752,342.752,0,0,1-40.926,23.087,3.054,3.054,0,0,1-3.777-4.563C1200.667,1675.382,1219.51,1654.945,1244.115,1655.227Zm-183.972,73.039a3.094,3.094,0,0,1-.937-5.221,42.807,42.807,0,0,0,6.437-6.482c1.821-2.641,4.5,3.591,12.519,7.9a3.084,3.084,0,0,1-1.02,5.774l-.141.02A34.584,34.584,0,0,1,1060.143,1728.266Z" transform="translate(-1019.977 -1645.504)" fill="#6d184e"/>
        </g>
      </g>
      <g id="Grupo_30" data-name="Grupo 30" transform="translate(14.717 59.173)">
        <g id="Grupo_29" data-name="Grupo 29">
          <path id="Caminho_33" data-name="Caminho 33" d="M1037.916,1440.929c-15.464,0-28.189-9.185-34.636-25.29-3.716-9.282-4.6-19.083-2.492-27.6,2.179-8.8,7.274-15.2,14.347-18.032a21.6,21.6,0,0,1,9.783-1.449,380.275,380.275,0,0,0,152.051-60.863,21.558,21.558,0,0,1,8.081-5.7h0c14.314-5.729,32.288,5.416,40.066,24.846,7.112,17.767,2.881,34.712-11.318,45.329a351.564,351.564,0,0,1-81.808,43.519,351.5,351.5,0,0,1-89.2,24.944A40.875,40.875,0,0,1,1037.916,1440.929Zm-14.8-67.7a16.628,16.628,0,0,0-6.221,1.18c-5.62,2.25-9.708,7.5-11.511,14.774-1.872,7.56-1.058,16.332,2.292,24.7,6.36,15.888,18.936,23.925,34.508,22.058a346.774,346.774,0,0,0,88-24.626c.029-.013.058-.024.087-.035a346.811,346.811,0,0,0,80.72-42.921c12.529-9.369,16.085-23.867,9.726-39.754-6.807-17.007-22.021-26.971-33.911-22.21l-.88-2.2.88,2.2a16.906,16.906,0,0,0-6.477,4.65,2.357,2.357,0,0,1-.44.392,384.952,384.952,0,0,1-154.511,61.848,2.4,2.4,0,0,1-.589.02Q1023.946,1373.224,1023.115,1373.225Z" transform="translate(-999.667 -1300.492)" fill="#6d184e"/>
        </g>
      </g>
      <g id="Grupo_32" data-name="Grupo 32" transform="translate(4.576 82.734)">
        <g id="Grupo_31" data-name="Grupo 31" transform="translate(0 0)">
          <path id="Caminho_34" data-name="Caminho 34" d="M933.215,1570.165s-15.929,6.413-19.859,17.377,17.791-6.827,38.684-4.965,7.033-18.2,36.2-1.034,31.858,45.718,51.717,46.235,18.618-16.239,26.065-7.137,21.566,7.447,13.808-9-2.844-52.648,32.323-72.714,53.992-15.722,55.647-18.618-6.206-17.791-31.237-18.2S1048.647,1565.614,933.215,1570.165Z" transform="translate(-912.891 -1502.104)" fill="#fcaf15"/>
        </g>
      </g>
      <g id="Grupo_34" data-name="Grupo 34" transform="translate(4.576 145.798)" opacity="0.3">
        <g id="Grupo_33" data-name="Grupo 33" transform="translate(0 0)">
          <path id="Caminho_35" data-name="Caminho 35" d="M1080.544,2089.843c-3.064,3.271-10.011,1.712-14.52-3.8-7.447-9.1-5.712,9.416-25.571,8.9-11.252-.293-16.242-9.646-24.41-20.769,2.749-1.542,7.251-6.543,11.814-11.554,7.913-8.688,28.237,15.36,49.685-.3l.9-4.2s-3.733,10.069-23.283,3.588-26.854-10.83-33.111-3.588a40.233,40.233,0,0,1-11.373,8.93,80.116,80.116,0,0,0-22.436-20.1,87.635,87.635,0,0,0-9.973-5.2q-6.479,1.195-13.237,2.147c-2.167,2.365-5.1,4.791-12.992,4.087-12.3-1.1-24.882,4.616-32.353,7.266a22.868,22.868,0,0,0-6.331,8.873c-3.931,10.964,17.791-6.827,38.684-4.965s7.034-18.2,36.2-1.034,31.858,45.718,51.717,46.235,18.618-16.239,26.065-7.137C1073.217,2106.011,1086.632,2104.762,1080.544,2089.843Z" transform="translate(-912.891 -2041.746)" fill="#6d184e"/>
        </g>
      </g>
      <g id="Grupo_41" data-name="Grupo 41" transform="translate(4.802 155.175)">
        <g id="Grupo_36" data-name="Grupo 36" transform="translate(39.21)">
          <g id="Grupo_35" data-name="Grupo 35">
            <path id="Caminho_36" data-name="Caminho 36" d="M1250.349,2130.041c12.675,1.021,12.3-6.175,17.059-7.751C1258.395,2120.269,1260.8,2129.007,1250.349,2130.041Z" transform="translate(-1250.349 -2121.988)" fill="#f8ce36"/>
          </g>
        </g>
        <g id="Grupo_38" data-name="Grupo 38" transform="translate(0 7.894)">
          <g id="Grupo_37" data-name="Grupo 37">
            <path id="Caminho_37" data-name="Caminho 37" d="M914.827,2197.645c2.013,3.112,17.324-7.135,33.516-8.042C935.1,2188.8,921.683,2195.576,914.827,2197.645Z" transform="translate(-914.827 -2189.537)" fill="#f8ce36"/>
          </g>
        </g>
        <g id="Grupo_40" data-name="Grupo 40" transform="translate(158.379 8.27)" opacity="0.5">
          <g id="Grupo_39" data-name="Grupo 39">
            <path id="Caminho_38" data-name="Caminho 38" d="M2275.241,2192.763c-1.511.223,1.52-.07,0,0-6.759,10.43-6,21.936-2.75,28.816,4,8.488,2.175,13.027-1.552,14.189,6.183,1.544,11.407-2.725,6-14.189C2273.652,2214.61,2272.641,2204.094,2275.241,2192.763Z" transform="translate(-2270.077 -2192.752)" fill="#fff"/>
          </g>
        </g>
      </g>
      <g id="Grupo_43" data-name="Grupo 43" transform="translate(170.88 128.4)" opacity="0.3">
        <g id="Grupo_42" data-name="Grupo 42" transform="translate(0 0)">
          <path id="Caminho_39" data-name="Caminho 39" d="M2341.713,1908.648l-4.581,11.761s2.4-11.14,0-17.5-1.529-12.474,6.443-9.05,8.8,2.76,8.8,2.76A145.362,145.362,0,0,0,2341.713,1908.648Z" transform="translate(-2335.957 -1892.873)" fill="#6d184e"/>
        </g>
      </g>
      <g id="Grupo_45" data-name="Grupo 45" transform="translate(2.213 80.367)">
        <g id="Grupo_44" data-name="Grupo 44" transform="translate(0 0)">
          <path id="Caminho_40" data-name="Caminho 40" d="M1022.98,1612.27q-.463,0-.941-.012c-11.48-.3-17.751-8.936-25.013-18.937-6.677-9.2-14.246-19.62-27.844-27.624-7.4-4.353-12.428-6.534-15.383-6.664-1.909-.073-2.629.637-4.211,2.424-2.419,2.732-5.732,6.469-15.617,5.593-9.976-.891-20.251,2.982-27.753,5.808-6.611,2.49-10.253,3.863-12.473,1.678-1.857-1.828-.818-4.726-.477-5.679,4.24-11.828,20.513-18.5,21.2-18.774a2.384,2.384,0,0,1,.791-.169c76.891-3.032,129.777-32.311,164.773-51.686,17.325-9.591,29.844-16.515,38.71-16.375,17.756.293,28.289,7.788,32.227,14.7.941,1.654,2.326,4.768,1.026,7.042-1.075,1.881-3.252,2.137-7.589,2.648-7.936.934-24.449,2.877-48.94,16.851-32.576,18.587-39.217,52.979-31.355,69.647,5.217,11.061.951,15.3-1.126,16.617-4.612,2.914-11.928.669-16.656-5.109-1.437-1.755-2.047-1.845-2.053-1.845a9.684,9.684,0,0,0-2.41,1.975C1038.8,1607.354,1033.731,1612.27,1022.98,1612.27Zm-69.526-57.964c3.684,0,9.075,1.979,18.13,7.31,14.448,8.5,22.668,19.826,29.273,28.923,7.06,9.723,12.16,16.747,21.3,16.986,9.407.227,13.458-3.677,16.413-6.542,1.826-1.77,3.553-3.435,5.978-3.3,2.345.136,4.141,1.981,5.445,3.574,3.406,4.162,8.248,5.5,10.463,4.1,2.076-1.311,1.836-5.371-.628-10.594-4.508-9.558-4.522-23.649-.034-36.775,3.873-11.329,12.8-27.293,33.325-39,25.327-14.451,42.486-16.47,50.732-17.441,1.428-.167,3-.353,3.871-.55a11.051,11.051,0,0,0-2.592-4.5c-2.492-2.889-10.059-9.635-26.467-9.907-7.615-.148-19.656,6.547-36.338,15.783-35.322,19.556-88.663,49.09-166.446,52.257-2.3,1-14.945,6.866-18.158,15.827q-.062.174-.109.321a63.776,63.776,0,0,0,6.933-2.349c7.929-2.987,18.793-7.074,29.842-6.094,7.5.672,9.519-1.606,11.652-4.015C948.088,1556.008,950.037,1554.307,953.453,1554.307Zm194.331-52.8Z" transform="translate(-892.67 -1481.851)" fill="#6d184e"/>
        </g>
      </g>
      <g id="Grupo_47" data-name="Grupo 47" transform="translate(129.596 177.008)">
        <g id="Grupo_46" data-name="Grupo 46" transform="translate(0)">
          <path id="Caminho_41" data-name="Caminho 41" d="M2003.12,2313.135s-7.219,13.427-17.891,11.791c-8.1-1.241,5.433.338,8.946-9.464C1998.232,2304.136,2005.209,2310.032,2003.12,2313.135Z" transform="translate(-1982.687 -2308.809)" fill="#f8ce36"/>
        </g>
      </g>
      <g id="Grupo_49" data-name="Grupo 49" transform="translate(2.372 62.296)">
        <g id="Grupo_48" data-name="Grupo 48" transform="translate(0 0)">
          <path id="Caminho_42" data-name="Caminho 42" d="M926.487,1391.411s-28.548,1.551-31.961,17.377,11.481,12.722,22.962,12.1-10.861,21.411,9,23.272,23.893-27.927,35.995-13.653,31.03,12.722,40.339-.31,17.067-4.654,35.374,1.241,30.72-9.619,24.824-28.548,25.755,5.585,34.754-13.963-10.24-22.962,12.722-27.617,32.892-6.205,29.168-18.773-12.412-21.876-41.58-9.464S1042.539,1399.789,926.487,1391.411Z" transform="translate(-894.029 -1327.219)" fill="#48c75a"/>
        </g>
      </g>
      <g id="Grupo_51" data-name="Grupo 51" transform="translate(2.933 62.302)" opacity="0.3">
        <g id="Grupo_50" data-name="Grupo 50" transform="translate(0 0)">
          <path id="Caminho_43" data-name="Caminho 43" d="M1130.5,1329.594c-.19-.64-.4-1.269-.614-1.89-6.206-1.248-14.971.058-27.554,5.413-29.168,12.412-55.544,66.714-171.6,58.336,0,0-28.217,1.536-31.9,17.109,3.131-.113,6.427-.452,9.484-.617,6.725-.363,1.848,7.044.642,13.618,4.019.14,8.617-.406,12.771-.631,5.449-.294,3.28,4.513,1.619,9.845,14.815-3.742,19.2-25.909,29.961-13.212,12.1,14.274,31.03,12.722,40.339-.31s17.066-4.655,35.374,1.241,30.72-9.619,24.824-28.548,25.755,5.585,34.754-13.964-10.24-22.962,12.722-27.617S1134.22,1342.162,1130.5,1329.594Z" transform="translate(-898.837 -1327.267)" fill="#6d184e"/>
        </g>
      </g>
      <g id="Grupo_58" data-name="Grupo 58" transform="translate(7.203 78.611)" opacity="0.5">
        <g id="Grupo_53" data-name="Grupo 53" transform="translate(0 75.965)">
          <g id="Grupo_52" data-name="Grupo 52">
            <path id="Caminho_44" data-name="Caminho 44" d="M939.605,2116.862c-1.376.074-2.8.183-4.233.291a26.123,26.123,0,0,0,7.4.652" transform="translate(-935.372 -2116.862)" fill="#fff"/>
          </g>
        </g>
        <g id="Grupo_55" data-name="Grupo 55" transform="translate(80.617 78.528)">
          <g id="Grupo_54" data-name="Grupo 54">
            <path id="Caminho_45" data-name="Caminho 45" d="M1639.256,2146.09a26.1,26.1,0,0,1-14.043,10.031,24.288,24.288,0,0,0,22.257-10.282c2.6-3.641,5.08-5.608,7.7-6.428C1649.1,2137.862,1644.4,2138.887,1639.256,2146.09Z" transform="translate(-1625.213 -2138.788)" fill="#fff"/>
          </g>
        </g>
        <g id="Grupo_57" data-name="Grupo 57" transform="translate(144.543)">
          <g id="Grupo_56" data-name="Grupo 56">
            <path id="Caminho_46" data-name="Caminho 46" d="M2267.91,1466.826c-1.722,7.1-12.312,8.95-31.461,12.831-24.333,4.932-3.946,8.549-13.482,29.265s-40.224-2.494-36.828,14.8c3.1,15.8-1.826,28.608-13.908,31.146,14.718.906,23.719-13.1,18.529-29.767-5.9-18.928,25.755,5.585,34.754-13.964s-10.24-22.962,12.722-27.617C2259.861,1479.134,2269.922,1477.5,2267.91,1466.826Z" transform="translate(-2172.23 -1466.826)" fill="#fff"/>
          </g>
        </g>
      </g>
      <g id="Grupo_60" data-name="Grupo 60" transform="translate(0 59.93)">
        <g id="Grupo_59" data-name="Grupo 59">
          <path id="Caminho_47" data-name="Caminho 47" d="M910.323,1428.731q-.966,0-1.979-.094c-4.61-.433-7.676-1.9-9.373-4.476-2.646-4.023-.914-9.363.479-13.653.547-1.687,1.359-4.187,1.23-5.088a3.539,3.539,0,0,0-.985-.049c-1.266.068-2.556.166-3.922.27-7.674.582-15.611,1.184-19.683-3.487-2.338-2.681-2.926-6.524-1.8-11.748,3.751-17.391,32.907-19.174,34.147-19.241a2.441,2.441,0,0,1,.3,0c86.444,6.236,121.692-21.943,147.432-42.521,8.348-6.674,15.558-12.438,23.067-15.633,14.905-6.343,25.865-7.677,33.505-4.077,5.4,2.544,8.984,7.326,11.272,15.048,1.293,4.365,1.118,7.823-.536,10.572-3.456,5.744-12.77,7.625-28.2,10.743l-2.232.451c-5.779,1.172-9.066,2.334-9.77,3.456-.339.54-.068,1.7.4,3.553,1.021,4.01,2.563,10.07-1.675,19.278-5.425,11.784-18.073,9.753-26.443,8.409-3.111-.5-7.812-1.256-8.617-.328-.027.03-.641.793.416,4.188,3.306,10.612,1.436,20.753-5,27.128-5.675,5.622-13.989,7.217-22.809,4.377-4.405-1.419-8.187-2.968-11.524-4.335-10.732-4.4-15.174-6.216-21.2,2.216a26.74,26.74,0,0,1-20.708,11.376c-8.795.363-17.089-3.51-23.364-10.91-1.694-2-3.2-3.023-4.463-3.048h-.048c-2.17,0-4.817,2.882-7.617,5.932C926.051,1422.023,919.893,1428.731,910.323,1428.731Zm-10.317-28.1a5.266,5.266,0,0,1,4.441,1.839c1.821,2.368.748,5.674-.494,9.5-1.136,3.5-2.423,7.467-1.026,9.59.844,1.283,2.815,2.078,5.859,2.364,8.371.783,13.674-4.989,18.352-10.084,3.564-3.882,6.921-7.571,11.246-7.463,2.723.054,5.334,1.6,7.981,4.72,5.31,6.262,12.256,9.547,19.556,9.241a22.037,22.037,0,0,0,17.051-9.4c8.2-11.485,16.023-8.28,26.846-3.847,3.257,1.335,6.949,2.847,11.18,4.21,7.183,2.312,13.585,1.165,18.025-3.234,5.08-5.031,6.541-13.6,3.813-22.356-.8-2.555-1.607-6.236.526-8.7,2.53-2.918,7.357-2.144,12.946-1.246,9.9,1.589,17.758,2.179,21.391-5.714,3.537-7.685,2.345-12.368,1.387-16.13-.648-2.547-1.26-4.952.175-7.239,1.562-2.486,5.041-4,12.84-5.578l2.234-.452c13.67-2.762,22.7-4.586,25.081-8.543.594-.987,1.245-2.764.053-6.785-1.877-6.334-4.657-10.182-8.75-12.11-6.261-2.95-16.231-1.552-29.634,4.151-6.912,2.941-13.887,8.518-21.964,14.975-12.607,10.079-28.3,22.623-51.838,31.785-27.522,10.712-59.821,14.561-98.73,11.772-2.086.145-26.759,2.153-29.638,15.5-.779,3.611-.53,6.181.74,7.638,2.513,2.883,9.548,2.349,15.757,1.877,1.331-.1,2.707-.206,4.024-.277Q899.729,1400.628,900.006,1400.628Z" transform="translate(-873.736 -1306.97)" fill="#6d184e"/>
        </g>
      </g>
      <g id="Grupo_122" data-name="Grupo 122" transform="translate(9.5 0)">
        <g id="Grupo_62" data-name="Grupo 62" transform="translate(2.367 2.368)">
          <g id="Grupo_61" data-name="Grupo 61">
            <path id="Caminho_48" data-name="Caminho 48" d="M1101.883,949.395c38.284-16,68.806-40.5,84.369-70.775a110.587,110.587,0,0,0-98.586-64.191c-60.76-.978-111.309,47.833-112.368,108.591a110.813,110.813,0,0,0,3.636,30.234C1013.371,970.686,1057.632,967.886,1101.883,949.395Z" transform="translate(-975.28 -814.414)" fill="#f9a332"/>
          </g>
        </g>
        <g id="Grupo_64" data-name="Grupo 64" transform="translate(13.488 2.368)" opacity="0.5">
          <g id="Grupo_63" data-name="Grupo 63">
            <path id="Caminho_49" data-name="Caminho 49" d="M1266.883,871.868a110.539,110.539,0,0,0-95.175-57.439q-1.065-.017-2.126-.013h-.083q-.427,0-.849.012a111,111,0,0,0-98.207,62.353,119.342,119.342,0,0,1,83.481-53.463c.907,3.964,7.532,7.042,15.575,7.042,8.188,0,14.906-3.189,15.618-7.256A118.675,118.675,0,0,1,1266.883,871.868Z" transform="translate(-1070.444 -814.414)" fill="#fff"/>
          </g>
        </g>
        <g id="Grupo_67" data-name="Grupo 67" transform="translate(7.694 33.008)">
          <g id="Grupo_66" data-name="Grupo 66" opacity="0.3">
            <g id="Grupo_65" data-name="Grupo 65">
              <path id="Caminho_50" data-name="Caminho 50" d="M1169.992,1153.087c-32.915,13.754-65.835,18.827-94.714,13.349a39.1,39.1,0,0,1-31.885-38.707q0-.508.013-1.018A109.478,109.478,0,0,1,1056.5,1076.6h0a110.189,110.189,0,0,0-35.618,79.149,111.325,111.325,0,0,0,1.279,18.92,20.256,20.256,0,0,0,12.952,15.934,107.48,107.48,0,0,0,11.492,3.518c29.076,5.733,62.307.705,95.536-13.18,31.043-12.971,56.979-31.534,73.978-54.233A204.55,204.55,0,0,1,1169.992,1153.087Z" transform="translate(-1020.861 -1076.603)" fill="#6d184e"/>
            </g>
          </g>
        </g>
        <g id="Grupo_78" data-name="Grupo 78" transform="translate(53.296 22.19)">
          <g id="Grupo_69" data-name="Grupo 69" transform="translate(0 15.11)">
            <g id="Grupo_68" data-name="Grupo 68">
              <path id="Caminho_51" data-name="Caminho 51" d="M1416.474,1120.661c-1.145,3.6-3.124,6.237-4.384,5.836s-1.354-3.694-.209-7.3,3.124-6.236,4.384-5.836c1.181.375,1.351,3.3.39,6.693Z" transform="translate(-1411.08 -1113.324)" fill="#fce69f"/>
            </g>
          </g>
          <g id="Grupo_71" data-name="Grupo 71" transform="translate(19.068 17.553)">
            <g id="Grupo_70" data-name="Grupo 70">
              <path id="Caminho_52" data-name="Caminho 52" d="M1579.265,1141.442c-.646,3.724-2.25,6.6-3.552,6.376s-1.842-3.477-1.2-7.2,2.25-6.6,3.552-6.376c1.221.212,1.785,3.083,1.293,6.579Z" transform="translate(-1574.243 -1134.229)" fill="#fce69f"/>
            </g>
          </g>
          <g id="Grupo_73" data-name="Grupo 73" transform="translate(43.269 17.522)">
            <g id="Grupo_72" data-name="Grupo 72">
              <path id="Caminho_53" data-name="Caminho 53" d="M1786.293,1140.466c.526,3.743-.118,6.974-1.427,7.158s-2.819-2.745-3.345-6.487.118-6.974,1.427-7.158c1.227-.172,2.645,2.388,3.248,5.866Z" transform="translate(-1781.337 -1133.971)" fill="#fce69f"/>
            </g>
          </g>
          <g id="Grupo_75" data-name="Grupo 75" transform="translate(62.189 11.57)">
            <g id="Grupo_74" data-name="Grupo 74">
              <path id="Caminho_54" data-name="Caminho 54" d="M1949.452,1087.743c2,3.207,2.723,6.422,1.6,7.121s-3.69-1.364-5.69-4.572-2.722-6.422-1.6-7.121c1.051-.656,3.386,1.109,5.348,4.043Z" transform="translate(-1943.233 -1083.034)" fill="#fce69f"/>
            </g>
          </g>
          <g id="Grupo_77" data-name="Grupo 77" transform="translate(77.021)">
            <g id="Grupo_76" data-name="Grupo 76">
              <path id="Caminho_55" data-name="Caminho 55" d="M2077.017,987.472c2.679,2.667,4.116,5.632,3.183,6.568s-3.9-.487-6.583-3.153-4.116-5.632-3.183-6.568c.874-.878,3.55.307,6.13,2.716Z" transform="translate(-2070.149 -984.031)" fill="#fce69f"/>
            </g>
          </g>
        </g>
        <g id="Grupo_119" data-name="Grupo 119" transform="translate(58.903 40.111)">
          <g id="Grupo_82" data-name="Grupo 82" transform="translate(0 61.097)">
            <g id="Grupo_81" data-name="Grupo 81">
              <g id="Grupo_80" data-name="Grupo 80" opacity="0.3">
                <g id="Grupo_79" data-name="Grupo 79">
                  <circle id="Elipse_11" data-name="Elipse 11" cx="2.276" cy="2.276" r="2.276" fill="#6d184e"/>
                </g>
              </g>
            </g>
          </g>
          <g id="Grupo_86" data-name="Grupo 86" transform="translate(36.7 39.479)">
            <g id="Grupo_85" data-name="Grupo 85">
              <g id="Grupo_84" data-name="Grupo 84" opacity="0.3">
                <g id="Grupo_83" data-name="Grupo 83">
                  <circle id="Elipse_12" data-name="Elipse 12" cx="2.276" cy="2.276" r="2.276" fill="#6d184e"/>
                </g>
              </g>
            </g>
          </g>
          <g id="Grupo_90" data-name="Grupo 90" transform="translate(44.221 63.161)" opacity="0.39">
            <g id="Grupo_89" data-name="Grupo 89">
              <g id="Grupo_88" data-name="Grupo 88" opacity="0.3">
                <g id="Grupo_87" data-name="Grupo 87">
                  <circle id="Elipse_13" data-name="Elipse 13" cx="2.276" cy="2.276" r="2.276" fill="#6d184e"/>
                </g>
              </g>
            </g>
          </g>
          <g id="Grupo_94" data-name="Grupo 94" transform="translate(66.181 35.307)" opacity="0.39">
            <g id="Grupo_93" data-name="Grupo 93">
              <g id="Grupo_92" data-name="Grupo 92" opacity="0.3">
                <g id="Grupo_91" data-name="Grupo 91">
                  <circle id="Elipse_14" data-name="Elipse 14" cx="2.276" cy="2.276" r="2.276" fill="#6d184e"/>
                </g>
              </g>
            </g>
          </g>
          <g id="Grupo_98" data-name="Grupo 98" transform="translate(89.671 53.931)">
            <g id="Grupo_97" data-name="Grupo 97">
              <g id="Grupo_96" data-name="Grupo 96" opacity="0.3">
                <g id="Grupo_95" data-name="Grupo 95">
                  <circle id="Elipse_15" data-name="Elipse 15" cx="2.276" cy="2.276" r="2.276" fill="#6d184e"/>
                </g>
              </g>
            </g>
          </g>
          <g id="Grupo_102" data-name="Grupo 102" transform="translate(92.715 19.499)">
            <g id="Grupo_101" data-name="Grupo 101">
              <g id="Grupo_100" data-name="Grupo 100" opacity="0.3">
                <g id="Grupo_99" data-name="Grupo 99">
                  <circle id="Elipse_16" data-name="Elipse 16" cx="2.276" cy="2.276" r="2.276" fill="#6d184e"/>
                </g>
              </g>
            </g>
          </g>
          <g id="Grupo_106" data-name="Grupo 106" transform="translate(109.072)">
            <g id="Grupo_105" data-name="Grupo 105">
              <g id="Grupo_104" data-name="Grupo 104" opacity="0.3">
                <g id="Grupo_103" data-name="Grupo 103">
                  <circle id="Elipse_17" data-name="Elipse 17" cx="2.276" cy="2.276" r="2.276" fill="#6d184e"/>
                </g>
              </g>
            </g>
          </g>
          <g id="Grupo_110" data-name="Grupo 110" transform="translate(0.456 37.464)" opacity="0.39">
            <g id="Grupo_109" data-name="Grupo 109">
              <g id="Grupo_108" data-name="Grupo 108" opacity="0.3">
                <g id="Grupo_107" data-name="Grupo 107">
                  <circle id="Elipse_18" data-name="Elipse 18" cx="2.276" cy="2.276" r="2.276" fill="#6d184e"/>
                </g>
              </g>
            </g>
          </g>
          <g id="Grupo_114" data-name="Grupo 114" transform="translate(131.392 21.432)">
            <g id="Grupo_113" data-name="Grupo 113">
              <g id="Grupo_112" data-name="Grupo 112" opacity="0.3">
                <g id="Grupo_111" data-name="Grupo 111">
                  <circle id="Elipse_19" data-name="Elipse 19" cx="2.276" cy="2.276" r="2.276" fill="#6d184e"/>
                </g>
              </g>
            </g>
          </g>
          <g id="Grupo_118" data-name="Grupo 118" transform="translate(116.636 46.281)" opacity="0.39">
            <g id="Grupo_117" data-name="Grupo 117">
              <g id="Grupo_116" data-name="Grupo 116" opacity="0.3">
                <g id="Grupo_115" data-name="Grupo 115">
                  <circle id="Elipse_20" data-name="Elipse 20" cx="2.276" cy="2.276" r="2.276" fill="#6d184e"/>
                </g>
              </g>
            </g>
          </g>
        </g>
        <g id="Grupo_121" data-name="Grupo 121">
          <g id="Grupo_120" data-name="Grupo 120">
            <path id="Caminho_56" data-name="Caminho 56" d="M1013.057,949.384a121.035,121.035,0,0,1-42.4-7.244,22.423,22.423,0,0,1-14.29-17.573,114.082,114.082,0,0,1-1.331-19.484,112.963,112.963,0,0,1,170.044-95.438,113.725,113.725,0,0,1,39.647,39.2,22.288,22.288,0,0,1-.5,23.636c-16.641,25.309-44.07,46.474-79.323,61.2h0c-20.423,8.534-40.5,13.648-59.671,15.2Q1019.048,949.385,1013.057,949.384Zm54.914-150.5c-58.8,0-107.168,47.314-108.2,106.279a109.316,109.316,0,0,0,1.276,18.674A17.684,17.684,0,0,0,972.313,937.7c30.943,11.509,70.28,8.53,110.768-8.388h0c34.379-14.365,61.072-34.918,77.192-59.436a17.53,17.53,0,0,0,.4-18.589,107.651,107.651,0,0,0-90.939-52.389C1069.149,798.891,1068.559,798.886,1067.972,798.886Z" transform="translate(-955.024 -794.15)" fill="#6d184e"/>
          </g>
        </g>
      </g>
      <g id="Grupo_132" data-name="Grupo 132" transform="translate(161.17 214.298)">
        <g id="Grupo_124" data-name="Grupo 124" transform="translate(2.37 2.359)">
          <g id="Grupo_123" data-name="Grupo 123">
            <path id="Caminho_57" data-name="Caminho 57" d="M2300.014,2656.476a13.548,13.548,0,1,1-26.642-4.942c1.365-7.357,5.427.649,12.98-2.126C2295.247,2646.142,2301.378,2649.119,2300.014,2656.476Z" transform="translate(-2273.142 -2648.091)" fill="#fcaf15"/>
          </g>
        </g>
        <g id="Grupo_127" data-name="Grupo 127" transform="translate(10.516 2.375)" opacity="0.5">
          <g id="Grupo_126" data-name="Grupo 126">
            <g id="Grupo_125" data-name="Grupo 125">
              <path id="Caminho_58" data-name="Caminho 58" d="M2353.126,2648.293c2.1,1.346,3.082,3.794,2.452,7.191a13.544,13.544,0,0,1-12.728,11.055,13.511,13.511,0,0,0,18.725-9.942C2362.652,2650.793,2359.054,2647.732,2353.126,2648.293Z" transform="translate(-2342.85 -2648.227)" fill="#fff"/>
            </g>
          </g>
        </g>
        <g id="Grupo_129" data-name="Grupo 129" transform="translate(2.37 2.62)" opacity="0.3">
          <g id="Grupo_128" data-name="Grupo 128">
            <path id="Caminho_59" data-name="Caminho 59" d="M2285.719,2661.22c-5.235-.971-8.955-6.1-10.318-10.9-.943.125-1.613.936-2.03,3.183a13.548,13.548,0,1,0,26.642,4.942,8.372,8.372,0,0,0-.232-4.426C2296.884,2658.469,2291.267,2662.25,2285.719,2661.22Z" transform="translate(-2273.142 -2650.319)" fill="#6d184e"/>
          </g>
        </g>
        <g id="Grupo_131" data-name="Grupo 131" transform="translate(0 0)">
          <g id="Grupo_130" data-name="Grupo 130">
            <path id="Caminho_60" data-name="Caminho 60" d="M2268.819,2652.1a16.079,16.079,0,0,1-2.937-.271,15.916,15.916,0,0,1-12.746-18.552c.3-1.629.869-3.624,2.582-4.61,1.775-1.022,3.65-.352,5.3.24,1.954.7,3.973,1.42,6.606.453,5.9-2.167,11.065-1.9,14.176.723,2.4,2.024,3.331,5.219,2.63,9a15.927,15.927,0,0,1-15.615,13.017Zm-10.712-19.17a6.95,6.95,0,0,0-.315,1.211,11.181,11.181,0,0,0,21.987,4.078c.267-1.439.305-3.391-1.028-4.517-1.722-1.453-5.358-1.413-9.489.1-4.245,1.56-7.608.356-9.833-.439C2259.007,2633.211,2258.473,2633.02,2258.107,2632.926Z" transform="translate(-2252.865 -2627.902)" fill="#6d184e"/>
          </g>
        </g>
      </g>
      <g id="Grupo_134" data-name="Grupo 134" transform="translate(207.027 116.857)">
        <g id="Grupo_133" data-name="Grupo 133" transform="translate(0)">
          <path id="Caminho_61" data-name="Caminho 61" d="M2646.268,1808.97a3.239,3.239,0,0,0,2.98-.2c3.746-2.2,15.712-9.473,17.727-13.763C2669.22,1790.221,2639.5,1805.863,2646.268,1808.97Z" transform="translate(-2645.264 -1794.1)" fill="#e5525f"/>
        </g>
      </g>
    </g>
  </g>
</svg>
