<svg id="shopping_cart_black_24dp_2_" data-name="shopping_cart_black_24dp (2)" xmlns="http://www.w3.org/2000/svg" width="49.792" height="49.792" viewBox="0 0 49.792 49.792">
  <path id="Caminho_12" data-name="Caminho 12" d="M0,0H49.792V49.792H0Z" fill="none"/>
  <path id="Caminho_13" data-name="Caminho 13" d="M35.147,27.823A4.671,4.671,0,0,0,39.254,25.4l8.4-15.235A2.338,2.338,0,0,0,45.614,6.7H10.88L8.674,2H1V6.7H5.694l8.449,17.818L10.974,30.24a4.7,4.7,0,0,0,4.107,6.972H43.244v-4.7H15.081l2.582-4.695ZM13.11,11.39H41.625L35.147,23.128H18.672Zm1.971,28.17a4.7,4.7,0,1,0,4.694,4.7A4.688,4.688,0,0,0,15.081,39.56Zm23.469,0a4.7,4.7,0,1,0,4.694,4.7A4.688,4.688,0,0,0,38.55,39.56Z" transform="translate(-0.29 -0.579)" fill="#ffbc00"/>
</svg>
