<svg id="sports_bar_black_24dp" xmlns="http://www.w3.org/2000/svg" width="56" height="56" viewBox="0 0 56 56">
  <rect id="Retângulo_4" data-name="Retângulo 4" width="56" height="56" fill="none"/>
  <path id="Caminho_14" data-name="Caminho 14" d="M37.174,49.4H17.239V30.9c3.588-.949,6.009-3.544,7.889-5.552,2.364-2.539,3.731-3.85,6.351-3.85h5.7ZM22.935,2.02a13.474,13.474,0,0,0-12.16,7.561A11.14,11.14,0,0,0,3,20.1a11.205,11.205,0,0,0,8.544,10.77V54.977H42.87V49.4h5.7a5.655,5.655,0,0,0,5.7-5.58V27.076a5.655,5.655,0,0,0-5.7-5.58H44.123a10.734,10.734,0,0,0,1.595-5.58A11.275,11.275,0,0,0,34.326,4.754a11.587,11.587,0,0,0-2.791.363,13.571,13.571,0,0,0-8.6-3.1ZM14.391,25.681A5.655,5.655,0,0,1,8.7,20.1a5.575,5.575,0,0,1,3.9-5.246l2.278-.753L15.9,11.981A7.778,7.778,0,0,1,27.89,9.414l2.221,1.814a10.484,10.484,0,0,1,4.186-.893,5.655,5.655,0,0,1,5.7,5.58H31.45c-9.455,0-10.936,9.766-17.059,9.766ZM42.87,43.817V27.076h5.7V43.817Z" transform="translate(-1.549 -1.532)" fill="#ffbc00"/>
</svg>
